<svg width="135" height="33" viewBox="0 0 135 33" fill="none" xmlns="http://www.w3.org/2000/svg">
<path d="M21.0405 9.39957C20.9792 9.39957 20.9218 9.40722 20.8606 9.40722C20.9065 7.73474 20.3018 6.05077 19.0274 4.77631L14.5763 0.329102L1.8662 13.0392L1.85854 13.0469C-0.590868 15.504 -0.590868 19.4957 1.85854 21.9451C3.08707 23.1698 4.69832 23.7822 6.30958 23.7822C6.37081 23.7822 6.43205 23.7745 6.48945 23.7745C6.4397 25.447 7.04823 27.1348 8.31886 28.4093L12.7699 32.8565L25.4839 20.1463C25.4839 20.1463 25.4839 20.1463 25.4877 20.1425C26.6741 18.9561 27.3286 17.3755 27.3286 15.6953C27.3286 14.0152 26.6741 12.4345 25.4877 11.2481C24.2974 10.0578 22.7168 9.40339 21.0366 9.40339L21.0405 9.39957ZM4.29647 19.5072C3.18658 18.3973 3.18658 16.5909 4.2735 15.504C4.33091 15.4465 4.38832 15.393 4.44956 15.3394L4.4419 15.3317L14.5763 5.20113L16.5894 7.21424C17.6993 8.32412 17.6993 10.1306 16.5894 11.2405L8.57911 19.2508L8.46812 19.3618H8.46046C8.41836 19.4077 8.37244 19.4536 8.32651 19.5034H8.32268C8.32268 19.5034 8.32268 19.5072 8.32268 19.511C7.21279 20.6171 5.40636 20.6171 4.29647 19.511V19.5072ZM10.7606 25.9713C9.65072 24.8615 9.65072 23.055 10.7606 21.9451C10.7606 21.9451 10.7606 21.9451 10.7644 21.9413L18.7671 13.9386L19.0274 13.6784C19.5632 13.1426 20.2942 12.844 21.0405 12.844C21.8021 12.844 22.5178 13.1426 23.0574 13.6822C23.597 14.2218 23.8917 14.9337 23.8917 15.6953C23.8917 16.4569 23.597 17.1688 23.0574 17.7084C23.0268 17.739 22.9962 17.7735 22.9617 17.8003L12.7737 27.9883L10.7606 25.9752V25.9713Z" fill="#B592FF"/>
<path d="M41.0722 15.5425C38.6994 15.1981 38.2822 14.8766 38.2822 14.3331C38.2822 13.8892 38.5539 13.296 40.0848 13.296C41.8874 13.296 42.3314 13.9887 42.5304 14.5819H46.4839C46.3117 12.7525 44.7311 10.6284 40.2341 10.6284C35.7371 10.6284 34.3287 12.8023 34.3287 14.7541C34.3287 16.3118 34.9947 18.0876 39.8629 18.7804C42.4309 19.1248 42.9744 19.4731 42.9744 20.1888C42.9744 20.8049 42.5036 21.3254 40.7776 21.3254C39.0515 21.3254 38.2095 20.7322 37.888 19.8175H33.8848C34.279 22.6076 37.0231 24.0925 40.5058 24.0925C45.175 24.0925 46.9279 22.1674 46.9279 19.8443C46.9279 18.0647 46.2619 16.3348 41.0722 15.5464V15.5425Z" fill="#E6E6E6"/>
<path d="M53.3728 7.21875H49.3198V10.9732H47.0234V13.9125H49.3198V19.9901C49.3198 22.4855 50.2345 23.8441 53.3728 23.8441C54.3104 23.8441 55.2251 23.7714 55.9179 23.5724V20.8053C55.5734 20.878 55.1754 20.878 54.8309 20.878C53.5947 20.878 53.3728 20.3843 53.3728 19.2974V13.9125H56.3388V10.9732H53.3728V7.21875Z" fill="#E6E6E6"/>
<path d="M61.7733 13.5453C61.7733 12.8525 61.7235 11.4441 61.6508 10.9772H57.7241C57.7471 12.1368 57.7471 13.3003 57.7471 14.46V23.7486H61.7733V19.0794C61.7733 15.4474 63.7979 14.2877 66.6874 14.3375V10.6557C64.0428 10.606 62.489 11.8651 61.7733 13.5453Z" fill="#E6E6E6"/>
<path d="M71.8773 10.9731H67.8511V23.7445H71.8773V10.9731Z" fill="#E6E6E6"/>
<path d="M71.8773 5.34277H67.8511V8.58059H71.8773V5.34277Z" fill="#E6E6E6"/>
<path d="M88.6754 10.9726H83.9067C82.2992 12.6527 79.7082 15.1481 78.4491 16.4799V5.34277H74.4229V23.7478H78.4491V19.844L80.4507 18.1141L84.3544 23.7478H89.2188L83.2905 15.8676L88.6754 10.9764V10.9726Z" fill="#E6E6E6"/>
<path d="M98.6791 10.6518C96.0345 10.6021 94.4807 11.8612 93.765 13.5414C93.765 12.8486 93.7152 11.4402 93.6425 10.9733H89.7158C89.7388 12.1329 89.7388 13.2964 89.7388 14.4561V23.7447H93.765V19.0755C93.765 15.4435 95.7896 14.2838 98.6791 14.3336V10.6518Z" fill="#E6E6E6"/>
<path d="M102.928 18.5811H98.2856V23.7439H102.928V18.5811Z" fill="#B592FF"/>
<path d="M114.685 12.4081C114.363 11.6924 113.425 10.6284 110.758 10.6284C107.103 10.6284 104.259 13.5677 104.259 17.5212C104.259 21.004 106.728 23.8935 110.436 23.8935C112.909 23.8935 113.946 23.1281 114.685 22.0909V22.6343C114.685 24.8082 114.091 26.4883 111.474 26.4883C109.422 26.4883 108.733 25.7459 108.435 24.9307H104.359C104.581 26.3391 105.568 29.4774 111.252 29.4774C116.935 29.4774 118.661 26.9093 118.661 22.3129V14.7312C118.661 13.495 118.661 12.2358 118.684 10.9767H114.757C114.734 11.2982 114.708 11.9641 114.685 12.4081ZM111.546 20.8088C109.472 20.8088 108.385 19.2281 108.385 17.3758C108.385 15.3512 109.545 13.7705 111.669 13.7705C113.793 13.7705 114.757 15.179 114.757 17.2533C114.757 19.5994 113.598 20.8088 111.546 20.8088Z" fill="#B592FF"/>
<path d="M130.744 10.9728C130.721 11.2943 130.694 11.9602 130.671 12.4042C130.349 11.6885 129.412 10.6245 126.744 10.6245C123.089 10.6245 120.246 13.5638 120.246 17.5173C120.246 21.0001 122.718 23.8896 126.423 23.8896C128.891 23.8896 129.932 23.1241 130.671 22.087V22.6304C130.671 24.8043 130.078 26.4844 127.46 26.4844C125.409 26.4844 124.716 25.742 124.421 24.9268H120.345C120.567 26.3352 121.555 29.4735 127.238 29.4735C132.921 29.4735 134.647 26.9054 134.647 22.309V14.7273C134.647 13.4911 134.647 12.2319 134.67 10.9728H130.744ZM127.533 20.8049C125.458 20.8049 124.371 19.2242 124.371 17.3719C124.371 15.3473 125.531 13.7666 127.655 13.7666C129.779 13.7666 130.744 15.1751 130.744 17.2494C130.744 19.5955 129.584 20.8049 127.533 20.8049Z" fill="#B592FF"/>
</svg>
