<svg width="33" height="33" viewBox="0 0 33 33" fill="none" xmlns="http://www.w3.org/2000/svg">
<path d="M24.0034 9.39957C23.9421 9.39957 23.8847 9.40722 23.8235 9.40722C23.8694 7.73474 23.2647 6.05077 21.9903 4.77631L17.5392 0.329102L4.82909 13.0392L4.82143 13.0469C2.37202 15.504 2.37202 19.4957 4.82143 21.9451C6.04996 23.1698 7.66122 23.7822 9.27247 23.7822C9.3337 23.7822 9.39494 23.7745 9.45235 23.7745C9.40259 25.447 10.0111 27.1348 11.2817 28.4093L15.7328 32.8565L28.4467 20.1463C28.4467 20.1463 28.4467 20.1463 28.4506 20.1425C29.637 18.9561 30.2915 17.3755 30.2915 15.6953C30.2915 14.0152 29.637 12.4345 28.4506 11.2481C27.2603 10.0578 25.6797 9.40339 23.9995 9.40339L24.0034 9.39957ZM7.25936 19.5072C6.14947 18.3973 6.14947 16.5909 7.2364 15.504C7.2938 15.4465 7.35121 15.393 7.41245 15.3394L7.40479 15.3317L17.5392 5.20113L19.5523 7.21424C20.6622 8.32412 20.6622 10.1306 19.5523 11.2405L11.542 19.2508L11.431 19.3618H11.4234C11.3813 19.4077 11.3353 19.4536 11.2894 19.5034H11.2856C11.2856 19.5034 11.2856 19.5072 11.2856 19.511C10.1757 20.6171 8.36925 20.6171 7.25936 19.511V19.5072ZM13.7235 25.9713C12.6136 24.8615 12.6136 23.055 13.7235 21.9451C13.7235 21.9451 13.7235 21.9451 13.7273 21.9413L21.73 13.9386L21.9903 13.6784C22.5261 13.1426 23.2571 12.844 24.0034 12.844C24.765 12.844 25.4807 13.1426 26.0203 13.6822C26.5599 14.2218 26.8546 14.9337 26.8546 15.6953C26.8546 16.4569 26.5599 17.1688 26.0203 17.7084C25.9897 17.739 25.9591 17.7735 25.9246 17.8003L15.7366 27.9883L13.7235 25.9752V25.9713Z" fill="#B592FF"/>
</svg>
