<svg width="32" height="32" viewBox="0 0 32 32" fill="none" xmlns="http://www.w3.org/2000/svg">
<path fill-rule="evenodd" clip-rule="evenodd" d="M28.6988 16.9919L30.7419 15.4456H28.7285C28.5298 11.3428 26.138 7.77697 22.6285 5.75843L24.7979 3.44393C29.1369 6.13227 32 10.752 32 16C32 24.301 24.8366 31.0303 16 31.0303C14.2909 31.0303 12.6443 30.7786 11.1001 30.3124L14.2905 27.8975C14.8394 27.9651 15.3992 28 15.9677 28C22.6671 28 28.162 23.1553 28.6988 16.9919ZM3.45945 18.4478C4.35662 22.5144 7.4445 25.8276 11.512 27.2499L9.58665 29.7742C3.94288 27.452 0 22.1585 0 16C0 7.69899 7.16344 0.969696 16 0.969696C18.647 0.969696 21.1438 1.5735 23.3429 2.6425L20.3432 4.72245C18.9783 4.25502 17.5047 4.00001 15.9677 4.00001C8.91268 4.00001 3.19348 9.3726 3.19348 16C3.19348 16.2021 3.1988 16.4031 3.20931 16.6027L0.54834 18.4478H3.45945Z" fill="#708771"/>
<path d="M29.7418 15.7576L8.19344 32L18.921 18.4478L1.48376 18.1515L27.7292 0L11.7017 15.4456L29.7418 15.7576Z" fill="#30FAA2"/>
</svg>
