<?xml version="1.0"?>
<svg width="135" height="33" xmlns="http://www.w3.org/2000/svg" xmlns:svg="http://www.w3.org/2000/svg">
 <g class="layer">
  <title>Layer 1</title>
  <path d="m21.04,9.4c-0.06,0 -0.12,0.01 -0.18,0.01c0.05,-1.68 -0.56,-3.36 -1.83,-4.63l-4.45,-4.45l-12.71,12.71l-0.01,0.01c-2.45,2.45 -2.45,6.45 0,8.9c1.23,1.22 2.84,1.83 4.45,1.83c0.06,0 0.12,-0.01 0.18,-0.01c-0.05,1.68 0.56,3.36 1.83,4.64l4.45,4.45l12.71,-12.71c0,0 0,0 0.01,-0.01c1.18,-1.18 1.84,-2.76 1.84,-4.44c0,-1.68 -0.66,-3.27 -1.84,-4.45c-1.19,-1.19 -2.77,-1.85 -4.45,-1.85l0,0zm-16.74,10.11c-1.11,-1.11 -1.11,-2.92 -0.03,-4.01c0.06,-0.05 0.12,-0.11 0.18,-0.16l-0.01,-0.01l10.14,-10.13l2.01,2.01c1.11,1.11 1.11,2.92 0,4.03l-8.01,8.01l-0.11,0.11l-0.01,0c-0.04,0.05 -0.09,0.09 -0.13,0.14l-0.01,0c0,0 0,0.01 0,0.01c-1.11,1.11 -2.91,1.11 -4.02,0l0,0zm6.46,6.46c-1.11,-1.11 -1.11,-2.92 0,-4.02c0,0 0,0 0,-0.01l8.01,-8l0.26,-0.26c0.53,-0.54 1.26,-0.84 2.01,-0.84c0.76,0 1.48,0.3 2.02,0.84c0.54,0.54 0.83,1.25 0.83,2.02c0,0.76 -0.29,1.47 -0.83,2.01c-0.03,0.03 -0.06,0.06 -0.1,0.09l-10.19,10.19l-2.01,-2.01l0,-0.01z" fill="#B592FF" id="svg_1"/>
  <path d="m41.07,15.54c-2.37,-0.34 -2.79,-0.66 -2.79,-1.21c0,-0.44 0.27,-1.03 1.8,-1.03c1.81,0 2.25,0.69 2.45,1.28l3.95,0c-0.17,-1.83 -1.75,-3.95 -6.25,-3.95c-4.49,0 -5.9,2.17 -5.9,4.12c0,1.56 0.66,3.34 5.53,4.03c2.57,0.34 3.11,0.69 3.11,1.41c0,0.61 -0.47,1.14 -2.19,1.14c-1.73,0 -2.57,-0.6 -2.89,-1.51l-4.01,0c0.4,2.79 3.14,4.27 6.63,4.27c4.66,0 6.42,-1.92 6.42,-4.25c0,-1.78 -0.67,-3.51 -5.86,-4.29l0,-0.01z" fill="#E6E6E6" id="svg_2"/>
  <path d="m53.37,7.22l-4.05,0l0,3.75l-2.3,0l0,2.94l2.3,0l0,6.08c0,2.5 0.91,3.85 4.05,3.85c0.94,0 1.86,-0.07 2.55,-0.27l0,-2.76c-0.35,0.07 -0.74,0.07 -1.09,0.07c-1.24,0 -1.46,-0.5 -1.46,-1.58l0,-5.39l2.97,0l0,-2.94l-2.97,0l0,-3.75z" fill="#E6E6E6" id="svg_3"/>
  <path d="m61.77,13.55c0,-0.7 -0.05,-2.11 -0.12,-2.57l-3.93,0c0.03,1.16 0.03,2.32 0.03,3.48l0,9.29l4.02,0l0,-4.67c0,-3.63 2.03,-4.79 4.92,-4.74l0,-3.68c-2.65,-0.05 -4.2,1.21 -4.92,2.89z" fill="#E6E6E6" id="svg_4"/>
  <path d="m71.88,10.97l-4.03,0l0,12.77l4.03,0l0,-12.77z" fill="#E6E6E6" id="svg_5"/>
  <path d="m71.88,5.34l-4.03,0l0,3.24l4.03,0l0,-3.24z" fill="#E6E6E6" id="svg_6"/>
  <path d="m88.68,10.97l-4.77,0c-1.61,1.68 -4.2,4.18 -5.46,5.51l0,-11.14l-4.03,0l0,18.41l4.03,0l0,-3.91l2,-1.73l3.9,5.64l4.87,0l-5.93,-7.88l5.39,-4.89l0,-0.01z" fill="#E6E6E6" id="svg_7"/>
  <path d="m98.68,10.65c-2.65,-0.05 -4.2,1.21 -4.91,2.89c0,-0.69 -0.05,-2.1 -0.13,-2.57l-3.92,0c0.02,1.16 0.02,2.33 0.02,3.49l0,9.28l4.03,0l0,-4.66c0,-3.64 2.02,-4.8 4.91,-4.75l0,-3.68z" fill="#E6E6E6" id="svg_8"/>
  <path d="m102.93,18.58l-4.64,0l0,5.16l4.64,0l0,-5.16z" fill="#B592FF" id="svg_9"/>
  <text fill="#ffb900" font-family="Sans-serif" font-size="21" font-weight="bold" id="svg_12" letter-spacing="0" stroke-width="0" text-anchor="middle" transform="matrix(0.936358 0 0 1.05168 8.1199 2.43483)" word-spacing="0" x="118.31" xml:space="preserve" y="18.84">pro</text>
 </g>

</svg>